<?xml version="1.0" standalone="no"?>
<!DOCTYPE svg PUBLIC "-//W3C//DTD SVG 20010904//EN"
 "http://www.w3.org/TR/2001/REC-SVG-20010904/DTD/svg10.dtd">
<svg version="1.0" xmlns="http://www.w3.org/2000/svg"
 width="144.000000pt" height="144.000000pt" viewBox="0 0 144.000000 144.000000"
 preserveAspectRatio="xMidYMid meet">
<metadata>
Created by potrace 1.11, written by Peter Selinger 2001-2013
</metadata>
<g transform="translate(0.000000,144.000000) scale(0.100000,-0.100000)"
fill="#000000" stroke="none">
<path d="M684 1431 c4 -6 2 -11 -4 -11 -6 0 -9 -4 -6 -9 18 -29 23 -210 6
-243 -18 -35 -51 -58 -86 -58 -28 0 -32 -5 -64 -82 -47 -117 -59 -159 -65
-246 -7 -87 -27 -130 -59 -127 -11 1 -28 3 -37 4 -21 1 -61 75 -59 109 3 45 0
72 -7 72 -20 0 -95 -141 -108 -201 -4 -19 -10 -38 -13 -44 -11 -18 -8 -99 5
-138 6 -20 13 -39 13 -42 1 -2 4 -14 7 -25 3 -11 10 -20 16 -20 6 0 8 -3 4 -6
-5 -5 34 -66 53 -84 19 -17 50 -71 46 -79 -4 -5 -24 0 -47 11 -23 10 -43 17
-45 15 -11 -11 127 -119 197 -156 105 -54 168 -69 275 -65 140 5 263 44 407
131 63 38 73 56 27 48 -45 -8 -36 8 58 113 56 64 85 135 87 214 1 81 -31 222
-66 289 -21 40 -24 42 -27 19 -10 -79 -55 -110 -98 -69 -21 20 -23 28 -17 83
12 127 5 204 -24 259 -29 57 -155 186 -248 257 -33 25 -62 47 -65 50 -13 14
-62 41 -56 31z"/>
<path d="M326 1084 c-4 -14 -21 -41 -39 -61 -18 -19 -31 -39 -29 -44 1 -5 -2
-9 -7 -9 -6 0 -10 -8 -10 -17 0 -10 -2 -30 -4 -45 -8 -49 8 -53 47 -12 20 21
36 44 36 50 0 7 5 14 11 16 14 5 25 148 11 148 -5 0 -13 -12 -16 -26z"/>
</g>
</svg>
